<?xml version="1.0" encoding="UTF-8"?>
<!DOCTYPE svg PUBLIC "-//W3C//DTD SVG 1.1//EN" "http://www.w3.org/Graphics/SVG/1.1/DTD/svg11.dtd">
<svg xmlns="http://www.w3.org/2000/svg" version="1.1" width="875px" height="862px" style="shape-rendering:geometricPrecision; text-rendering:geometricPrecision; image-rendering:optimizeQuality; fill-rule:evenodd; clip-rule:evenodd" xmlns:xlink="http://www.w3.org/1999/xlink">
<g><path style="opacity:1" fill="#fefefe" d="M -0.5,-0.5 C 291.167,-0.5 582.833,-0.5 874.5,-0.5C 874.5,286.833 874.5,574.167 874.5,861.5C 582.833,861.5 291.167,861.5 -0.5,861.5C -0.5,574.167 -0.5,286.833 -0.5,-0.5 Z"/></g>
<g><path style="opacity:1" fill="#020202" d="M 737.5,82.5 C 752.17,82.3334 766.837,82.5001 781.5,83C 783.96,84.4578 786.127,86.2911 788,88.5C 788.667,310.5 788.667,532.5 788,754.5C 786.039,757.135 783.539,758.969 780.5,760C 545.112,760.997 309.778,760.664 74.5,759C 72.6217,757.457 71.1217,755.624 70,753.5C 69.0022,534.42 69.3355,315.42 71,96.5C 72.5429,94.6217 74.3762,93.1217 76.5,92C 296.997,88.8315 517.33,85.6648 737.5,82.5 Z"/></g>
<g><path style="opacity:1" fill="#fefefe" d="M 708.5,105.5 C 727.833,105.5 747.167,105.5 766.5,105.5C 766.5,316.5 766.5,527.5 766.5,738.5C 699.262,738.831 632.096,738.498 565,737.5C 563.89,527.499 562.724,317.499 561.5,107.5C 610.668,107.176 659.668,106.509 708.5,105.5 Z"/></g>
<g><path style="opacity:1" fill="#fefefe" d="M 92.5,737.5 C 92.5,529.833 92.5,322.167 92.5,114.5C 97.0323,114.818 101.366,114.485 105.5,113.5C 250.166,111.744 394.833,110.078 539.5,108.5C 540.728,318.499 541.728,528.499 542.5,738.5C 392.332,738.833 242.332,738.5 92.5,737.5 Z"/></g>
<g><path style="opacity:1" fill="#bebebe" d="M 105.5,113.5 C 101.366,114.485 97.0323,114.818 92.5,114.5C 92.5,322.167 92.5,529.833 92.5,737.5C 91.5003,529.667 91.1669,321.667 91.5,113.5C 96.1667,113.5 100.833,113.5 105.5,113.5 Z"/></g>
<g><path style="opacity:1" fill="#040404" d="M 139.5,244.5 C 238.834,244.333 338.167,244.5 437.5,245C 441.802,246.935 443.802,250.268 443.5,255C 443.564,260.609 440.897,264.276 435.5,266C 337.5,266.667 239.5,266.667 141.5,266C 134.432,262.467 132.265,256.967 135,249.5C 136.707,247.963 138.207,246.296 139.5,244.5 Z"/></g>
<g><path style="opacity:1" fill="#020202" d="M 706.5,377.5 C 716.606,376.936 721.439,381.603 721,391.5C 703.814,422.539 687.147,453.872 671,485.5C 663.953,493.491 656.953,493.491 650,485.5C 628.333,454.833 606.667,424.167 585,393.5C 583.639,386.723 586.139,381.89 592.5,379C 596.053,378.402 599.386,379.069 602.5,381C 621.221,406.953 640.054,432.786 659,458.5C 673.836,432.831 688.17,406.831 702,380.5C 703.652,379.601 705.152,378.601 706.5,377.5 Z"/></g>
<g><path style="opacity:1" fill="#040404" d="M 161.5,398.5 C 253.501,398.333 345.501,398.5 437.5,399C 445.433,402.588 447.6,408.422 444,416.5C 442.786,418.049 441.286,419.215 439.5,420C 346.167,420.667 252.833,420.667 159.5,420C 153.529,415.803 152.029,410.303 155,403.5C 156.965,401.45 159.132,399.783 161.5,398.5 Z"/></g>
<g><path style="opacity:1" fill="#000000" d="M 153.5,576.5 C 247.167,576.333 340.834,576.5 434.5,577C 442.337,580.184 444.504,585.684 441,593.5C 439.457,595.378 437.624,596.878 435.5,598C 341.167,598.667 246.833,598.667 152.5,598C 146.823,594.364 144.99,589.197 147,582.5C 148.494,579.686 150.66,577.686 153.5,576.5 Z"/></g>
</svg>
